<?xml version="1.0" encoding="UTF-8" standalone="no"?>
<!-- Created with Inkscape (http://www.inkscape.org/) -->

<svg
   version="1.1"
   id="svg4293"
   xml:space="preserve"
   width="682.66669"
   height="682.66669"
   viewBox="0 0 682.66669 682.66669"
   xmlns="http://www.w3.org/2000/svg"
   xmlns:svg="http://www.w3.org/2000/svg"><defs
     id="defs4297"><clipPath
       clipPathUnits="userSpaceOnUse"
       id="clipPath4307"><path
         d="M 0,512 H 512 V 0 H 0 Z"
         id="path4305" /></clipPath></defs><g
     id="g4299"
     transform="matrix(1.3333333,0,0,-1.3333333,0,682.66667)"><g
       id="g4301"><g
         id="g4303"
         clip-path="url(#clipPath4307)"><g
           id="g4309"
           transform="translate(79.0332,64.0532)"><path
             d="m 0,0 7.284,-29.885 c 1.092,-4.479 5.105,-7.632 9.716,-7.632 h 319.931 c 4.61,0 8.624,3.153 9.715,7.632 L 353.93,0"
             style="fill:none;stroke:#000000;stroke-width:15;stroke-linecap:round;stroke-linejoin:round;stroke-miterlimit:10;stroke-dasharray:none;stroke-opacity:1"
             id="path4311" /></g><g
           id="g4313"
           transform="translate(420.7598,337.7202)"><path
             d="m 0,0 c 19.2,0 34.76,-15.57 34.76,-34.76 0,-10.71 -4.84,-20.28 -12.449,-26.65"
             style="fill:none;stroke:#000000;stroke-width:15;stroke-linecap:round;stroke-linejoin:round;stroke-miterlimit:10;stroke-dasharray:none;stroke-opacity:1"
             id="path4315" /></g><g
           id="g4317"
           transform="translate(372.9297,357.96)"><path
             d="m 0,0 c 4.721,3.11 10.381,4.92 16.45,4.92 16.55,0 29.96,-13.42 29.96,-29.96 0,-10.58 -5.479,-19.88 -13.769,-25.21"
             style="fill:none;stroke:#000000;stroke-width:15;stroke-linecap:round;stroke-linejoin:round;stroke-miterlimit:10;stroke-dasharray:none;stroke-opacity:1"
             id="path4319" /></g><g
           id="g4321"
           transform="translate(325.2402,359.6899)"><path
             d="M 0,0 2.939,11.8 C 3.6,14.46 6.3,16.08 8.96,15.41 L 44.63,6.52 C 47.29,5.85 48.91,3.16 48.24,0.49 L 43.5,-18.54 c -0.4,-1.61 -1.54,-2.83 -2.971,-3.41"
             style="fill:none;stroke:#000000;stroke-width:15;stroke-linecap:round;stroke-linejoin:round;stroke-miterlimit:10;stroke-dasharray:none;stroke-opacity:1"
             id="path4323" /></g><g
           id="g4325"
           transform="translate(154.96,408.5303)"><path
             d="m 0,0 -13.84,29.68 c -1.87,4 -5.65,6.88 -10.05,7.25 -5.92,0.49 -11.39,4.24 -13.72,10.28 -2.94,7.63 0.5,16.5 7.81,20.17 3.26,1.64 6.8,2.05 10.12,1.45 1.67,2.93 4.25,5.37 7.61,6.81 7.51,3.24 16.51,0.18 20.46,-6.97 C 11.53,63 10.88,56.39 7.46,51.54 4.91,47.94 4.69,43.19 6.55,39.19 L 20.39,9.5"
             style="fill:none;stroke:#000000;stroke-width:15;stroke-linecap:round;stroke-linejoin:round;stroke-miterlimit:10;stroke-dasharray:none;stroke-opacity:1"
             id="path4327" /></g><g
           id="g4329"
           transform="translate(151.25,360.4102)"><path
             d="M 0,0 C 0.66,3.28 1.61,6.44 2.84,9.43 6.16,17.54 6.18,26.62 2.48,34.57 L 2.26,35.02 C -0.7,41.37 2.05,48.92 8.4,51.88 l 9.81,4.57 c 6.351,2.96 13.89,0.21 16.851,-6.13 L 35.27,49.86 C 38.98,41.92 45.95,36.09 54.3,33.42 61.28,31.18 68.04,27.31 74.02,22.03"
             style="fill:none;stroke:#000000;stroke-width:15;stroke-linecap:round;stroke-linejoin:round;stroke-miterlimit:10;stroke-dasharray:none;stroke-opacity:1"
             id="path4331" /></g><g
           id="g4333"
           transform="translate(256,380.6299)"><path
             d="m 0,0 c 11.14,0 21.14,-4.9 27.95,-12.67 3.04,-3.46 7.69,-5 12.15,-3.83 3.01,0.79 6.17,1.21 9.43,1.21 13.15,0 24.69,-6.82 31.3,-17.12 2.32,-3.61 6.33,-5.71 10.63,-5.7 h 0.07 c 13.63,0 25.54,-7.33 32.02,-18.27 1.67,-2.82 4.4,-4.84 7.59,-5.62 10.22,-2.51 18.78,-9.26 23.72,-18.27 1.74,-3.17 4.69,-5.49 8.22,-6.29 12.74,-2.89 22.99,-12.31 27.04,-24.56 1.3,-3.9 4.48,-6.9 8.46,-7.92 14.59,-3.75 25.72,-16.12 27.61,-31.36"
             style="fill:none;stroke:#000000;stroke-width:15;stroke-linecap:round;stroke-linejoin:round;stroke-miterlimit:10;stroke-dasharray:none;stroke-opacity:1"
             id="path4335" /></g><g
           id="g4337"
           transform="translate(176.7402,350.4702)"><path
             d="m 0,0 c 6.779,9.03 17.56,14.87 29.729,14.87 3.261,0 6.42,-0.42 9.431,-1.21"
             style="fill:none;stroke:#000000;stroke-width:15;stroke-linecap:round;stroke-linejoin:round;stroke-miterlimit:10;stroke-dasharray:none;stroke-opacity:1"
             id="path4339" /></g><g
           id="g4341"
           transform="translate(29.8096,230.23)"><path
             d="m 0,0 c 1.891,15.24 13.021,27.61 27.61,31.36 3.981,1.02 7.161,4.02 8.46,7.92 4.05,12.25 14.3,21.67 27.04,24.56 3.531,0.8 6.481,3.12 8.22,6.29 0.79,1.44 1.681,2.83 2.641,4.15"
             style="fill:none;stroke:#000000;stroke-width:15;stroke-linecap:round;stroke-linejoin:round;stroke-miterlimit:10;stroke-dasharray:none;stroke-opacity:1"
             id="path4343" /></g><g
           id="g4345"
           transform="translate(280.3145,323.2192)"><path
             d="m 0,0 c -1.647,2.319 -4.624,3.872 -8.03,3.872 -3.407,0 -6.382,-1.553 -8.03,-3.872"
             style="fill:none;stroke:#000000;stroke-width:15;stroke-linecap:round;stroke-linejoin:round;stroke-miterlimit:10;stroke-dasharray:none;stroke-opacity:1"
             id="path4347" /></g><g
           id="g4349"
           transform="translate(283.1064,266.2822)"><path
             d="M 0,0 C -1.647,2.32 -4.624,3.872 -8.03,3.872 -11.437,3.872 -14.412,2.32 -16.06,0"
             style="fill:none;stroke:#000000;stroke-width:15;stroke-linecap:round;stroke-linejoin:round;stroke-miterlimit:10;stroke-dasharray:none;stroke-opacity:1"
             id="path4351" /></g><g
           id="g4353"
           transform="translate(391.5029,264.6709)"><path
             d="M 0,0 C -1.646,2.32 -4.623,3.872 -8.029,3.872 -11.436,3.872 -14.412,2.32 -16.06,0"
             style="fill:none;stroke:#000000;stroke-width:15;stroke-linecap:round;stroke-linejoin:round;stroke-miterlimit:10;stroke-dasharray:none;stroke-opacity:1"
             id="path4355" /></g><g
           id="g4357"
           transform="translate(89.46,357.3799)"><path
             d="m 0,0 -23.16,23.17 c -3.12,3.11 -7.67,4.53 -11.92,3.37 -5.73,-1.56 -12.149,0.09 -16.41,4.97 -5.37,6.17 -5.17,15.67 0.44,21.62 2.51,2.66 5.69,4.26 9.01,4.82 0.57,3.33 2.16,6.51 4.82,9.01 5.949,5.61 15.449,5.82 21.62,0.44 4.88,-4.25 6.54,-10.68 4.97,-16.41 -1.16,-4.25 0.26,-8.8 3.38,-11.91 L 15.9,15.92"
             style="fill:none;stroke:#000000;stroke-width:15;stroke-linecap:round;stroke-linejoin:round;stroke-miterlimit:10;stroke-dasharray:none;stroke-opacity:1"
             id="path4359" /></g><g
           id="g4361"
           transform="translate(205.8799,300.7798)"><path
             d="M 0,0 C -0.11,3.37 -0.56,6.79 -1.34,10.2"
             style="fill:none;stroke:#000000;stroke-width:15;stroke-linecap:round;stroke-linejoin:round;stroke-miterlimit:10;stroke-dasharray:none;stroke-opacity:1"
             id="path4363" /></g><g
           id="g4365"
           transform="translate(127.0303,270.1802)"><path
             d="m 0,0 c -2.17,1.69 -4.271,3.55 -6.28,5.56 -13.031,13.02 -19.481,29.72 -18.88,44.99 0.349,8.76 -2.74,17.3 -8.941,23.5 l -0.349,0.35 c -4.95,4.96 -4.95,12.99 0,17.94 l 7.65,7.65 c 4.949,4.96 12.989,4.96 17.94,0 l 0.349,-0.35 c 6.2,-6.2 14.74,-9.29 23.5,-8.94 15.271,0.61 31.971,-5.85 45,-18.87 0.571,-0.58 1.12,-1.16 1.671,-1.75"
             style="fill:none;stroke:#000000;stroke-width:15;stroke-linecap:round;stroke-linejoin:round;stroke-miterlimit:10;stroke-dasharray:none;stroke-opacity:1"
             id="path4367" /></g><g
           id="g4369"
           transform="translate(110.835,257.3857)"><path
             d="m 0,0 c 4.983,8.416 14.151,14.06 24.642,14.06 h 0.057 c 3.307,-0.007 6.392,1.605 8.179,4.388 5.088,7.925 13.975,13.177 24.092,13.177 2.509,0 4.942,-0.326 7.26,-0.934 3.43,-0.9 7.01,0.288 9.349,2.953 5.246,5.976 12.941,9.748 21.517,9.748 8.576,0 16.27,-3.772 21.516,-9.748"
             style="fill:none;stroke:#000000;stroke-width:15;stroke-linecap:round;stroke-linejoin:round;stroke-miterlimit:10;stroke-dasharray:none;stroke-opacity:1"
             id="path4371" /></g><g
           id="g4373"
           transform="translate(213.96,262.0654)"><path
             d="M 0,0 C -1.647,2.319 -4.623,3.872 -8.029,3.872 -11.436,3.872 -14.412,2.319 -16.06,0"
             style="fill:none;stroke:#000000;stroke-width:15;stroke-linecap:round;stroke-linejoin:round;stroke-miterlimit:10;stroke-dasharray:none;stroke-opacity:1"
             id="path4375" /></g><g
           id="g4377"
           transform="translate(349.6367,230.2344)"><path
             d="m 0,0 h -324.049 c -10.806,0 -19.268,-9.431 -17.953,-20.157 4.279,-34.872 15.757,-67.499 32.875,-96.394"
             style="fill:none;stroke:#000000;stroke-width:15;stroke-linecap:round;stroke-linejoin:round;stroke-miterlimit:10;stroke-dasharray:none;stroke-opacity:1"
             id="path4379" /></g><g
           id="g4381"
           transform="translate(59.3125,86.2612)"><path
             d="m 0,0 c 6.137,-7.787 12.72,-15.206 19.721,-22.208 h 353.933 c 38.423,38.431 64.433,89.263 71.399,146.024 1.315,10.726 -7.147,20.157 -17.953,20.157 H 323.647"
             style="fill:none;stroke:#000000;stroke-width:15;stroke-linecap:round;stroke-linejoin:round;stroke-miterlimit:10;stroke-dasharray:none;stroke-opacity:1"
             id="path4383" /></g><g
           id="g4385"
           transform="translate(10.6885,195.4858)"><path
             d="M 0,0 H 490.623"
             style="fill:none;stroke:#000000;stroke-width:15;stroke-linecap:round;stroke-linejoin:round;stroke-miterlimit:10;stroke-dasharray:none;stroke-opacity:1"
             id="path4387" /></g><g
           id="g4389"
           transform="translate(239.1719,343.0869)"><path
             d="m 0,0 -18.801,5.619 c -2.63,0.785 -4.125,3.554 -3.339,6.184 l 10.525,35.219 c 0.786,2.63 3.554,4.124 6.184,3.338 L 13.37,44.742 C 16,43.957 17.495,41.188 16.709,38.557 L 6.185,3.339 C 5.399,0.709 2.63,-0.786 0,0 Z"
             style="fill:none;stroke:#000000;stroke-width:15;stroke-linecap:round;stroke-linejoin:round;stroke-miterlimit:10;stroke-dasharray:none;stroke-opacity:1"
             id="path4391" /></g><g
           id="g4393"
           transform="translate(309.8027,284.9961)"><path
             d="m 0,0 0.508,19.616 c 0.071,2.744 2.353,4.91 5.097,4.84 l 36.746,-0.952 c 2.743,-0.071 4.91,-2.353 4.838,-5.097 L 46.682,-1.209 C 46.61,-3.953 44.329,-6.12 41.585,-6.048 L 4.84,-5.097 C 2.096,-5.026 -0.07,-2.744 0,0 Z"
             style="fill:none;stroke:#000000;stroke-width:15;stroke-linecap:round;stroke-linejoin:round;stroke-miterlimit:10;stroke-dasharray:none;stroke-opacity:1"
             id="path4395" /></g></g></g></g>
             </svg>
