<svg id="Layer_1" height="512" viewBox="0 0 64 64" width="512" xmlns="http://www.w3.org/2000/svg" data-name="Layer 1"><path d="m25 56h-16a1 1 0 0 1 -1-1v-16a1 1 0 0 1 1-1h16a1 1 0 0 1 1 1v16a1 1 0 0 1 -1 1zm-15-2h14v-14h-14z"/><path d="m9 40h-8a1 1 0 0 1 -1-1v-38a1 1 0 0 1 2 0v37h6v-6h-2v2a1 1 0 0 1 0 2h-1a1 1 0 0 1 -1-1v-4a1 1 0 0 1 1-1h4a1 1 0 0 1 1 1v8a1 1 0 0 1 -1 1z"/><path d="m17 64h-16a1 1 0 0 1 -1-1v-16a1 1 0 0 1 1-1h16a1 1 0 0 1 1 1v16a1 1 0 0 1 -1 1zm-15-2h14v-14h-14z"/><path d="m29 44h-8a1 1 0 0 1 -1-1v-8a1 1 0 0 1 1-1h8a1 1 0 0 1 1 1v8a1 1 0 0 1 -1 1zm-7-2h6v-6h-6z"/><path d="m63 64h-38a1 1 0 0 1 -1-1v-8a1 1 0 0 1 1-1h8a1 1 0 0 1 1 1v4a1 1 0 0 1 -2 0v-3h-6v6h37a1 1 0 0 1 0 2z"/><path d="m33 60h-4a1 1 0 0 1 -1-1v-1a1 1 0 0 1 2 0h3a1 1 0 0 1 0 2z"/><path d="m5 29a1 1 0 0 1 -1-1v-27a1 1 0 0 1 2 0v27a1 1 0 0 1 -1 1z"/><path d="m63 60h-27a1 1 0 0 1 0-2h27a1 1 0 0 1 0 2z"/></svg>