<svg id="Line" viewBox="0 0 64 64" xmlns="http://www.w3.org/2000/svg">
<path d="m56 28s-.35419 0-.35419 0c1.16994-4.3197-.56007-8.48885-4.53641-11.42529-.3389-.24024-.39749-.36084-.37015-.77588.08789-1.81055-.50488-3.28857-1.66992-4.16309-1.11133-.83545-2.65723-1.04248-4.28516-.58301-1.59562-2.70637-5.98061-2.70438-7.57812.0011-.79426-.26605-2-.39774-2.13086.6943-.05567.54924.34374 1.04045.89257 1.0966.43001.01039.88273.25279 1.33398.27495.66894-.01868 1.26682-.40097 1.6172-1.03179.45312-.68213 1.22754-1.08789 2.08008-1.08789.8507.00013 1.62248.40568 2.07129 1.08594.34837.63204.94979 1.01504 1.61718 1.03369 1.15032-.28932 2.45992-.51948 3.18163.11537.79103.5941.91115 1.6693.87306 2.4486-.07227 1.09912.2998 1.87695 1.19434 2.51074 3.49054 2.56964 4.878 6.13166 3.61667 9.80567-.00003 0-43.11649 0-43.11649 0-1.22571-3.5423.14191-7.32867 3.60236-9.79443.90918-.64502 1.28125-1.42285 1.20996-2.50439-.19763-2.16683 1.35919-3.48572 3.69733-2.63469.76157.19953 1.50943-.22405 1.93646-.91314.83729-1.4915 3.29671-1.52621 4.18749-.06734.35004.63198.94859 1.01498 1.61719 1.03363 1.15653-.28932 2.45637-.51951 3.18164.11537.79102.5941.91113 1.6693.87305 2.4486-.07227 1.09912.2998 1.87695 1.19336 2.51074 2.2373 1.65283 3.60449 3.71387 3.95605 5.96045.2224 1.29427 2.15794.99413 1.97655-.30961-.43456-2.77681-2.07519-5.28706-4.75878-7.27046-.33887-.24023-.39746-.36084-.37012-.77588.24679-3.59484-2.56246-5.75454-5.95513-4.74604-1.59293-2.70649-5.98246-2.7044-7.57807.00104-3.39937-.9989-6.20333 1.15193-5.95405 4.76263.02631.39741-.03228.51802-.37213.75923-3.94635 2.81213-5.64978 7.25726-4.52655 11.42432-2.32138-.16975-4.36538 1.65166-4.35331 4.00003-.00002-.00003-.00002 13.99997-.00002 13.99997 0 1.8587 1.27948 3.41095 3 3.85803v2.14197c0 1.6543 1.3457 3 3 3h44c1.6543 0 3-1.3457 3-3v-2.14197c1.72052-.44708 3-1.99933 3-3.85803v-14c0-2.20557-1.79395-4-4-4zm2 4v6h-40v-6c0-1.10303.89746-2 2-2h34.2467 1.75331c1.10253 0 1.99999.89697 1.99999 2zm-52 14v-14c0-1.10303.89746-2 2-2h1.75328 6.80305c-.34448.59076-.55634 1.26825-.55634 2v6h-6c-.55273 0-1 .44727-1 1s.44727 1 1 1h6v6c0 .73187.21179 1.4093.55621 2h-8.55621c-1.10254 0-2-.89746-2-2zm50 2c-.55273 0-1 .44727-1 1v3c0 .55176-.44824 1-1 1h-44c-.55176 0-1-.44824-1-1v-2h42c.55273 0 1-.44727 1-1s-.44727-1-1-1h-31c-1.10254 0-2-.89746-2-2v-6h40v6c0 1.10254-.89746 2-2 2z"/><path d="m10.5 35h1c1.31428-.02166 1.31462-1.97841-.00004-2h-.99996c-1.31428.02166-1.31462 1.97841 0 2z"/><path d="m10.5 45h1c1.31428-.02166 1.31462-1.97841-.00004-2h-.99996c-1.31428.02166-1.31462 1.97841 0 2z"/><path d="m20.52051 15.5c-.85158.0325-1.07099.74795-.99995 1.48096-.00005 1.97118-1.09477 3.74365-2.85845 4.6245-1.16801.60847-.286 2.35812.89457 1.78904 2.44527-1.22214 3.96383-3.67966 3.96383-6.41355.072-.72931-.15029-1.45139-1-1.48096z"/><path d="m25.47949 15.5c-.84909.03153-1.07214.74791-.99995 1.48096-.00005 2.73388 1.51851 5.1914 3.96382 6.41357 1.17823.56696 2.06488-1.17708.89449-1.78908-1.76363-.88084-2.85836-2.6533-2.85836-4.62449.07255-.72903-.15112-1.45182-1-1.48096z"/>
</svg>