<?xml version="1.0" encoding="UTF-8" standalone="no"?> <!-- Created with Inkscape (http://www.inkscape.org/) --> 

<svg version="1.1" id="svg6063" xml:space="preserve" width="682.66669" height="682.66669" viewBox="0 0 682.66669 682.66669" xmlns="http://www.w3.org/2000/svg" xmlns:svg="http://www.w3.org/2000/svg"><defs id="defs6067"><clipPath clipPathUnits="userSpaceOnUse" id="clipPath6077"><path d="M 0,512 H 512 V 0 H 0 Z" id="path6075" /></clipPath></defs><g id="g6069" transform="matrix(1.3333333,0,0,-1.3333333,0,682.66667)"><g id="g6071"><g id="g6073" clip-path="url(#clipPath6077)"><g id="g6079" transform="translate(498.2305,221)"><path d="m 0,0 c 2.479,12.19 3.77,25.48 3.77,40 h -492 c 0,-14.52 1.29,-27.81 3.77,-40 3.029,-14.94 7.839,-28.2 14.23,-40 23.149,-42.75 67,-66.22 122,-80 v -40 h 212 v 40 c 55,13.78 98.849,37.25 122,80 6.389,11.8 11.2,25.06 14.23,40 z" style="fill:none;stroke:#000000;stroke-width:20;stroke-linecap:round;stroke-linejoin:round;stroke-miterlimit:10;stroke-dasharray:none;stroke-opacity:1" id="path6081" /></g><g id="g6083" transform="translate(13.6602,221)"><path d="M 0,0 H 42.34" style="fill:none;stroke:#000000;stroke-width:20;stroke-linecap:round;stroke-linejoin:round;stroke-miterlimit:10;stroke-dasharray:none;stroke-opacity:1" id="path6085" /></g><g id="g6087" transform="translate(498.3398,221)"><path d="M 0,0 H -42.34" style="fill:none;stroke:#000000;stroke-width:20;stroke-linecap:round;stroke-linejoin:round;stroke-miterlimit:10;stroke-dasharray:none;stroke-opacity:1" id="path6089" /></g><g id="g6091" transform="translate(96,221)"><path d="M 0,0 H 20" style="fill:none;stroke:#000000;stroke-width:20;stroke-linecap:round;stroke-linejoin:round;stroke-miterlimit:10;stroke-dasharray:none;stroke-opacity:1" id="path6093" /></g><g id="g6095" transform="translate(156,221)"><path d="M 0,0 H 20" style="fill:none;stroke:#000000;stroke-width:20;stroke-linecap:round;stroke-linejoin:round;stroke-miterlimit:10;stroke-dasharray:none;stroke-opacity:1" id="path6097" /></g><g id="g6099" transform="translate(216,221)"><path d="M 0,0 H 20" style="fill:none;stroke:#000000;stroke-width:20;stroke-linecap:round;stroke-linejoin:round;stroke-miterlimit:10;stroke-dasharray:none;stroke-opacity:1" id="path6101" /></g><g id="g6103" transform="translate(276,221)"><path d="M 0,0 H 20" style="fill:none;stroke:#000000;stroke-width:20;stroke-linecap:round;stroke-linejoin:round;stroke-miterlimit:10;stroke-dasharray:none;stroke-opacity:1" id="path6105" /></g><g id="g6107" transform="translate(336,221)"><path d="M 0,0 H 20" style="fill:none;stroke:#000000;stroke-width:20;stroke-linecap:round;stroke-linejoin:round;stroke-miterlimit:10;stroke-dasharray:none;stroke-opacity:1" id="path6109" /></g><g id="g6111" transform="translate(396,221)"><path d="M 0,0 H 20" style="fill:none;stroke:#000000;stroke-width:20;stroke-linecap:round;stroke-linejoin:round;stroke-miterlimit:10;stroke-dasharray:none;stroke-opacity:1" id="path6113" /></g><g id="g6115" transform="translate(362,101)"><path d="M 0,0 H -212" style="fill:none;stroke:#000000;stroke-width:20;stroke-linecap:round;stroke-linejoin:round;stroke-miterlimit:10;stroke-dasharray:none;stroke-opacity:1" id="path6117" /></g><g id="g6119" transform="translate(459.4502,261)"><path d="M 0,0 C 7.78,7.74 11.56,17.58 9.05,26.94 6.12,37.91 -4.63,45.13 -17.931,46.85 -9.74,57.46 -7.25,70.17 -12.92,80 c -5.681,9.83 -17.931,14.03 -31.221,12.24 5.171,12.38 4.281,25.3 -3.75,33.32 -8.019,8.03 -20.939,8.92 -33.319,3.75 1.79,13.29 -2.41,25.54 -12.24,31.22 -9.83,5.67 -22.54,3.18 -33.151,-5.01 -1.719,13.3 -8.939,24.05 -19.909,26.98 -10.97,2.94 -22.6,-2.75 -30.73,-13.41 -5.09,12.4 -14.861,20.91 -26.21,20.91 -11.35,0 -21.12,-8.51 -26.21,-20.91 -8.13,10.66 -19.76,16.35 -30.73,13.41 -10.97,-2.93 -18.19,-13.68 -19.91,-26.98 -10.61,8.19 -23.32,10.68 -33.15,5.01 -9.83,-5.68 -14.03,-17.93 -12.24,-31.22 -12.38,5.17 -25.3,4.28 -33.32,-3.75 -8.03,-8.02 -8.92,-20.94 -3.75,-33.32 -13.29,1.79 -25.54,-2.41 -31.22,-12.24 -5.67,-9.83 -3.18,-22.54 5.01,-33.15 -13.3,-1.72 -24.05,-8.94 -26.98,-19.91 -2.51,-9.36 1.27,-19.2 9.05,-26.94" style="fill:none;stroke:#000000;stroke-width:20;stroke-linecap:round;stroke-linejoin:round;stroke-miterlimit:10;stroke-dasharray:none;stroke-opacity:1" id="path6121" /></g><g id="g6123" transform="translate(136,301)"><path d="M 0,0 20,20" style="fill:none;stroke:#000000;stroke-width:20;stroke-linecap:round;stroke-linejoin:round;stroke-miterlimit:10;stroke-dasharray:none;stroke-opacity:1" id="path6125" /></g><g id="g6127" transform="translate(196,301)"><path d="M 0,0 H 20" style="fill:none;stroke:#000000;stroke-width:20;stroke-linecap:round;stroke-linejoin:round;stroke-miterlimit:10;stroke-dasharray:none;stroke-opacity:1" id="path6129" /></g><g id="g6131" transform="translate(376,321)"><path d="M 0,0 20,-20" style="fill:none;stroke:#000000;stroke-width:20;stroke-linecap:round;stroke-linejoin:round;stroke-miterlimit:10;stroke-dasharray:none;stroke-opacity:1" id="path6133" /></g><g id="g6135" transform="translate(256,381)"><path d="M 0,0 H 20" style="fill:none;stroke:#000000;stroke-width:20;stroke-linecap:round;stroke-linejoin:round;stroke-miterlimit:10;stroke-dasharray:none;stroke-opacity:1" id="path6137" /></g><g id="g6139" transform="translate(196,381)"><path d="M 0,0 V -20" style="fill:none;stroke:#000000;stroke-width:20;stroke-linecap:round;stroke-linejoin:round;stroke-miterlimit:10;stroke-dasharray:none;stroke-opacity:1" id="path6141" /></g><g id="g6143" transform="translate(256,321)"><path d="M 0,0 20,20" style="fill:none;stroke:#000000;stroke-width:20;stroke-linecap:round;stroke-linejoin:round;stroke-miterlimit:10;stroke-dasharray:none;stroke-opacity:1" id="path6145" /></g><g id="g6147" transform="translate(336,361)"><path d="M 0,0 H 20" style="fill:none;stroke:#000000;stroke-width:20;stroke-linecap:round;stroke-linejoin:round;stroke-miterlimit:10;stroke-dasharray:none;stroke-opacity:1" id="path6149" /></g><g id="g6151" transform="translate(316,301)"><path d="M 0,0 H 20" style="fill:none;stroke:#000000;stroke-width:20;stroke-linecap:round;stroke-linejoin:round;stroke-miterlimit:10;stroke-dasharray:none;stroke-opacity:1" id="path6153" /></g><g id="g6155" transform="translate(266,181)"><path d="m 0,0 c 0,-5.522 -4.477,-10 -10,-10 -5.522,0 -10,4.478 -10,10 0,5.522 4.478,10 10,10 C -4.477,10 0,5.522 0,0" style="fill:#000000;fill-opacity:1;fill-rule:nonzero;stroke:none" id="path6157" /></g><g id="g6159" transform="translate(28,181)"><path d="M 0,0 H 183" style="fill:none;stroke:#000000;stroke-width:20;stroke-linecap:round;stroke-linejoin:round;stroke-miterlimit:10;stroke-dasharray:none;stroke-opacity:1" id="path6161" /></g><g id="g6163" transform="translate(301,181)"><path d="M 0,0 H 182.99" style="fill:none;stroke:#000000;stroke-width:20;stroke-linecap:round;stroke-linejoin:round;stroke-miterlimit:10;stroke-dasharray:none;stroke-opacity:1" id="path6165" /></g></g></g></g>
</svg>