<?xml version="1.0" encoding="UTF-8" standalone="no"?>
<!-- Created with Inkscape (http://www.inkscape.org/) -->

<svg
   version="1.1"
   id="svg2796"
   xml:space="preserve"
   width="682.66669"
   height="682.66669"
   viewBox="0 0 682.66669 682.66669"
   xmlns="http://www.w3.org/2000/svg"
   xmlns:svg="http://www.w3.org/2000/svg"><defs
     id="defs2800"><clipPath
       clipPathUnits="userSpaceOnUse"
       id="clipPath2810"><path
         d="M 0,512 H 512 V 0 H 0 Z"
         id="path2808" /></clipPath></defs><g
     id="g2802"
     transform="matrix(1.3333333,0,0,-1.3333333,0,682.66667)"><g
       id="g2804"><g
         id="g2806"
         clip-path="url(#clipPath2810)"><g
           id="g2812"
           transform="translate(478.2358,266.1016)"><path
             d="m 0,0 c 0,-122.737 -99.499,-222.235 -222.236,-222.235 -122.737,0 -222.236,99.498 -222.236,222.235"
             style="fill:none;stroke:#000000;stroke-width:15;stroke-linecap:round;stroke-linejoin:round;stroke-miterlimit:10;stroke-dasharray:none;stroke-opacity:1"
             id="path2814" /></g><g
           id="g2816"
           transform="translate(117.0508,179.376)"><path
             d="m 0,0 c -50.777,20.364 -83.287,51.646 -83.287,86.726 0,61.369 99.499,111.118 222.236,111.118 33.44,0 65.155,-3.694 93.603,-10.308"
             style="fill:none;stroke:#000000;stroke-width:15;stroke-linecap:round;stroke-linejoin:round;stroke-miterlimit:10;stroke-dasharray:none;stroke-opacity:1"
             id="path2818" /></g><g
           id="g2820"
           transform="translate(383.4038,357.1582)"><path
             d="m 0,0 c 57.342,-20.095 94.832,-53.387 94.832,-91.057 0,-61.368 -99.499,-111.118 -222.236,-111.118 -38.162,0 -74.077,4.81 -105.454,13.282"
             style="fill:none;stroke:#000000;stroke-width:15;stroke-linecap:round;stroke-linejoin:round;stroke-miterlimit:10;stroke-dasharray:none;stroke-opacity:1"
             id="path2822" /></g><g
           id="g2824"
           transform="translate(118.2539,320.3701)"><path
             d="m 0,0 c 36.818,16.915 86.554,26.545 137.746,26.545 53.955,0 106.292,-10.697 143.592,-29.347 30.268,-15.135 48.339,-34.374 48.339,-51.467 0,-17.092 -18.071,-36.332 -48.339,-51.466 -37.3,-18.65 -89.637,-29.346 -143.592,-29.346 -53.954,0 -106.291,10.696 -143.592,29.346 -30.268,15.134 -48.339,34.374 -48.339,51.466 0,11.819 8.64,24.665 23.977,36.468"
             style="fill:none;stroke:#000000;stroke-width:15;stroke-linecap:round;stroke-linejoin:round;stroke-miterlimit:10;stroke-dasharray:none;stroke-opacity:1"
             id="path2826" /></g><g
           id="g2828"
           transform="translate(432.3057,236.8037)"><path
             d="m 0,0 c -2.879,15.752 -18.885,32.758 -44.05,46.419 -34.356,18.65 -82.561,29.347 -132.256,29.347 -49.694,0 -97.9,-10.697 -132.255,-29.347 C -333.726,32.758 -349.732,15.752 -352.611,0"
             style="fill:none;stroke:#000000;stroke-width:15;stroke-linecap:round;stroke-linejoin:round;stroke-miterlimit:10;stroke-dasharray:none;stroke-opacity:1"
             id="path2830" /></g><g
           id="g2832"
           transform="translate(361.0571,70.1299)"><path
             d="m 0,0 v -10.154 c 0,-15.865 -9.289,-30.232 -23.726,-36.806 -17.006,-7.745 -43.621,-15.67 -81.331,-15.67 -37.71,0 -64.325,7.925 -81.332,15.67 -14.437,6.574 -23.725,20.941 -23.725,36.806 V 0"
             style="fill:none;stroke:#000000;stroke-width:15;stroke-linecap:round;stroke-linejoin:round;stroke-miterlimit:10;stroke-dasharray:none;stroke-opacity:1"
             id="path2834" /></g><g
           id="g2836"
           transform="translate(236.8071,256)"><path
             d="m 0,0 c -3.006,-17.031 -23.624,-25.254 -51.519,-25.254 -27.895,0 -55.706,9.112 -49.498,25.254 5.051,13.132 26.991,10.629 53.539,19.193 C -16.163,29.295 3.03,17.173 0,0 Z"
             style="fill:none;stroke:#000000;stroke-width:15;stroke-linecap:round;stroke-linejoin:round;stroke-miterlimit:10;stroke-dasharray:none;stroke-opacity:1"
             id="path2838" /></g><g
           id="g2840"
           transform="translate(237.8169,261.0508)"><path
             d="M 0,0 C 0,0 9.092,4.041 13.132,11.112"
             style="fill:none;stroke:#000000;stroke-width:15;stroke-linecap:round;stroke-linejoin:round;stroke-miterlimit:10;stroke-dasharray:none;stroke-opacity:1"
             id="path2842" /></g><g
           id="g2844"
           transform="translate(324.6909,267.1113)"><path
             d="m 0,0 c 0,-7.252 -9.045,-13.132 -20.203,-13.132 -11.158,0 -20.203,5.88 -20.203,13.132 0,7.253 9.045,13.133 20.203,13.133 C -9.045,13.133 0,7.253 0,0 Z"
             style="fill:none;stroke:#000000;stroke-width:15;stroke-linecap:round;stroke-linejoin:round;stroke-miterlimit:10;stroke-dasharray:none;stroke-opacity:1"
             id="path2846" /></g><g
           id="g2848"
           transform="translate(388.3315,247.9189)"><path
             d="m 0,0 c 0,-7.253 -9.045,-13.133 -20.204,-13.133 -11.157,0 -20.203,5.88 -20.203,13.133 0,7.252 9.046,13.132 20.203,13.132 C -9.045,13.132 0,7.252 0,0 Z"
             style="fill:none;stroke:#000000;stroke-width:15;stroke-linecap:round;stroke-linejoin:round;stroke-miterlimit:10;stroke-dasharray:none;stroke-opacity:1"
             id="path2850" /></g><g
           id="g2852"
           transform="translate(293.376,223.6748)"><path
             d="m 0,0 c 0,-7.253 -9.045,-13.132 -20.203,-13.132 -11.158,0 -20.203,5.879 -20.203,13.132 0,7.253 9.045,13.132 20.203,13.132 C -9.045,13.132 0,7.253 0,0 Z"
             style="fill:none;stroke:#000000;stroke-width:15;stroke-linecap:round;stroke-linejoin:round;stroke-miterlimit:10;stroke-dasharray:none;stroke-opacity:1"
             id="path2854" /></g><g
           id="g2856"
           transform="translate(260.0405,504.5)"><path
             d="M 0,0 C 0,-12.626 -8.081,-12.626 -8.081,-25.251 -8.081,-37.878 0,-37.878 0,-50.504 0,-63.132 -8.081,-63.132 -8.081,-75.76 -8.081,-88.389 0,-88.389 0,-101.017"
             style="fill:none;stroke:#000000;stroke-width:15;stroke-linecap:round;stroke-linejoin:round;stroke-miterlimit:10;stroke-dasharray:none;stroke-opacity:1"
             id="path2858" /></g><g
           id="g2860"
           transform="translate(307.5181,479.249)"><path
             d="M 0,0 C 0,-12.627 8.082,-12.627 8.082,-25.253 8.082,-37.881 0,-37.881 0,-50.509 0,-63.138 8.082,-63.138 8.082,-75.766"
             style="fill:none;stroke:#000000;stroke-width:15;stroke-linecap:round;stroke-linejoin:round;stroke-miterlimit:10;stroke-dasharray:none;stroke-opacity:1"
             id="path2862" /></g><g
           id="g2864"
           transform="translate(195.3901,479.249)"><path
             d="M 0,0 C 0,-12.627 8.082,-12.627 8.082,-25.253 8.082,-37.881 0,-37.881 0,-50.509 0,-63.138 8.082,-63.138 8.082,-75.766"
             style="fill:none;stroke:#000000;stroke-width:15;stroke-linecap:round;stroke-linejoin:round;stroke-miterlimit:10;stroke-dasharray:none;stroke-opacity:1"
             id="path2866" /></g></g></g></g>
</svg>
